# Blender v2.82 (sub 7) OBJ File: ''
# www.blender.org
o Box001
v 0.860210 1.551083 0.175955
v 0.860210 1.551083 -0.262214
v 0.901301 1.631122 -0.262214
v 0.901301 1.631122 0.175955
v -0.832064 1.551083 -0.314208
v -0.832064 1.631122 -0.338521
v 0.831572 1.631122 -0.338521
v 0.831572 1.551083 -0.314209
v 0.831572 1.551083 0.227949
v 0.831572 1.631122 0.250149
v -0.832064 1.631121 0.250149
v -0.832063 1.551083 0.227949
v -0.832064 1.525257 -0.262214
v 0.831572 1.525256 -0.262214
v -0.901793 1.631122 -0.262214
v -0.901793 1.631122 -0.338521
v -0.860701 1.551083 -0.314208
v -0.860701 1.551083 -0.262214
v 0.831572 1.631122 -0.262214
v -0.832064 1.631122 -0.262214
v 0.860210 1.551083 -0.314208
v 0.901301 1.631122 -0.338521
v -0.832064 1.525256 0.175955
v 0.831572 1.525256 0.175955
v 0.901301 1.631122 0.250149
v 0.860210 1.551083 0.227949
v -0.832064 1.631122 0.175955
v 0.831572 1.631122 0.175955
v -0.901792 1.631122 0.175955
v -0.860701 1.551083 0.175955
v -0.860701 1.551083 0.227950
v -0.901792 1.631122 0.250149
v 0.790239 1.064089 -0.226337
v 0.790239 1.064089 0.145847
v 0.787509 0.995385 0.143858
v 0.787509 0.995385 -0.223968
v -0.790731 1.064089 -0.226337
v -0.788000 0.995385 -0.223967
v -0.790730 1.064089 0.145847
v -0.788000 0.995385 0.143858
v 0.737625 1.064089 -0.153068
v -0.738116 1.064089 -0.153068
v -0.735568 0.995385 -0.151556
v 0.735077 0.995385 -0.151556
v 0.846713 0.006402 0.186984
v -0.847205 0.006402 0.186984
v -0.847205 0.006402 -0.275356
v 0.846713 0.006402 -0.275356
v 0.860209 0.091304 0.175955
v 0.901301 0.006402 0.186984
v 0.901301 0.006402 -0.275356
v 0.860209 0.091304 -0.262214
v 0.831572 0.091304 -0.314209
v 0.846713 0.006402 -0.338521
v -0.847205 0.006402 -0.338521
v -0.832063 0.091305 -0.314208
v -0.901793 0.006402 -0.275356
v -0.901793 0.006402 0.186984
v -0.860701 0.091305 0.175955
v -0.860701 0.091305 -0.262214
v -0.847205 0.006402 0.250149
v 0.846713 0.006402 0.250149
v 0.831572 0.091304 0.227949
v -0.832064 0.091305 0.227950
v 0.831572 0.112267 -0.262214
v -0.832064 0.112267 -0.262214
v -0.860701 0.091305 -0.314208
v -0.901793 0.006402 -0.338521
v 0.901301 0.006402 -0.338521
v 0.860209 0.091304 -0.314208
v -0.832064 0.112267 0.175955
v 0.831572 0.112267 0.175955
v 0.860209 0.091304 0.227949
v 0.901301 0.006402 0.250149
v -0.901793 0.006402 0.250149
v -0.860701 0.091305 0.227950
v 0.796321 0.465514 -0.231617
v 0.787509 0.642138 -0.223968
v 0.787509 0.642138 0.143858
v 0.796321 0.465514 0.150278
v -0.796813 0.465514 -0.231617
v -0.788001 0.642138 -0.223968
v -0.796813 0.465514 0.150278
v -0.788001 0.642138 0.143858
v 0.811009 1.348633 0.160976
v 0.811009 1.348633 -0.244366
v 0.796322 1.172009 0.150278
v 0.796322 1.172009 -0.231617
v 0.784571 0.818762 -0.221418
v 0.784571 0.818762 0.141718
v -0.811501 1.348633 -0.244366
v -0.796813 1.172009 -0.231617
v -0.785063 0.818762 -0.221418
v -0.811500 1.348633 0.160977
v -0.796813 1.172009 0.150278
v -0.785062 0.818762 0.141718
v -0.770520 1.473622 -0.172290
v -0.757504 1.348633 -0.164569
v 0.757013 1.348633 -0.164569
v 0.770028 1.473621 -0.172290
v -0.743794 1.172009 -0.156436
v 0.743302 1.172009 -0.156436
v -0.732826 0.818762 -0.149930
v 0.732334 0.818761 -0.149930
v 0.811009 0.288891 -0.244366
v 0.811009 0.288891 0.160976
v -0.811501 0.288891 -0.244366
v -0.811501 0.288891 0.160977
v 0.693754 0.288891 0.160976
v 0.681575 0.465514 0.150278
v -0.734199 0.693773 -0.150744
v 0.733708 0.693773 -0.150744
v -0.770519 1.473622 0.171133
v 0.770028 1.473622 0.171133
v -0.757504 1.348633 0.160977
v -0.743795 1.172009 0.150278
v -0.792687 1.103305 0.147272
v -0.739942 1.103305 0.147272
v -0.732826 0.818762 0.141718
v -0.735568 0.995386 0.143858
v -0.734199 0.693773 0.142790
v 0.733708 0.693773 0.142790
v 0.732334 0.818762 0.141718
v 0.735076 0.995385 0.143858
v 0.737625 1.064089 0.145847
v 0.757013 1.348633 0.160976
v 0.743303 1.172009 0.150278
v 0.792195 1.103305 0.147272
v 0.792195 1.103305 -0.228035
v -0.792687 1.103305 -0.228035
v -0.739942 1.103305 -0.154151
v 0.739451 1.103305 -0.154151
v -0.738116 1.064089 0.145847
v 0.739451 1.103305 0.147272
v -0.694246 0.288891 0.160977
v -0.682066 0.465514 0.150278
v -0.068221 0.267665 0.162550
v -0.068220 0.267664 0.190857
v -0.695709 0.267665 0.201216
v -0.695709 0.267665 0.162550
v -0.678767 0.513352 0.184591
v -0.066565 0.513352 0.174232
v -0.066565 0.513352 0.148116
v -0.678767 0.513352 0.148116
v 0.067586 0.288891 0.160976
v 0.066396 0.465514 0.150278
v -0.066887 0.465514 0.150278
v -0.068078 0.288891 0.160976
v 0.695218 0.267664 0.162550
v 0.695218 0.267664 0.201216
v 0.067729 0.267664 0.190857
v 0.067729 0.267664 0.162550
v 0.678276 0.513352 0.184591
v 0.066073 0.513352 0.174232
v 0.066073 0.513352 0.148116
v 0.678276 0.513352 0.148116
v -0.847204 1.631122 0.110433
v -0.901792 1.631122 0.108207
v -0.719666 1.631122 0.102967
v -0.888962 1.598067 0.087335
v -0.847204 1.631122 0.068260
v -0.901793 1.631122 0.053405
v -0.901793 1.631122 -0.042286
v -0.847205 1.631122 -0.027431
v -0.847205 1.631122 -0.024873
v -0.901793 1.631122 -0.027098
v -0.836148 1.631122 -0.024422
v -0.897168 1.619208 -0.029324
vt 0.000000 0.000000
vt 0.971794 0.000000
vt 1.000000 0.000000
vt 0.000000 0.000000
vt 1.000000 1.000000
vt 1.000000 1.000000
vt 1.000000 0.000000
vt 1.000000 0.045579
vt 0.000000 0.000000
vt 0.000000 0.000000
vt 0.000000 1.000000
vt 0.000000 0.954421
vt 1.000000 1.000000
vt 1.000000 0.971794
vt 1.000000 0.000000
vt 1.000000 0.000000
vt 1.000000 1.000000
vt 1.000000 1.000000
vt 1.000000 1.000000
vt 1.000000 1.000000
vt 1.000000 0.000000
vt 1.000000 1.000000
vt 1.000000 0.000000
vt 1.000000 0.000000
vt 1.000000 0.000000
vt 0.000000 1.000000
vt 0.000000 0.000000
vt 0.000000 0.971794
vt 0.000000 0.000000
vt 0.000000 0.000000
vt 0.000000 1.000000
vt 0.000000 0.000000
vt 0.000000 1.000000
vt 0.000000 1.000000
vt 0.000000 1.000000
vt 0.000000 1.000000
vt 0.971794 1.000000
vt 0.000000 1.000000
vt 1.000000 0.673623
vt 0.000000 0.673623
vt 0.000000 0.625000
vt 1.000000 0.625000
vt 1.000000 0.673623
vt 0.000000 0.673623
vt 0.003453 0.625000
vt 1.000000 0.625000
vt 1.000000 0.673623
vt 0.000000 0.673623
vt 0.000000 0.625000
vt 1.000000 0.625000
vt 1.000000 0.673623
vt 0.000000 0.673623
vt 0.003453 0.625000
vt 1.000000 0.625000
vt 0.000000 0.000000
vt 0.000000 1.000000
vt 1.000000 1.000000
vt 1.000000 0.000000
vt 0.000000 0.000000
vt 0.000000 0.000000
vt 1.000000 0.000000
vt 0.971794 0.000000
vt 1.000000 0.000000
vt 1.000000 0.000000
vt 1.000000 1.000000
vt 1.000000 0.954421
vt 1.000000 1.000000
vt 0.000000 1.000000
vt 0.028206 1.000000
vt 1.000000 1.000000
vt 0.000000 1.000000
vt 0.000000 0.000000
vt 0.000000 0.045579
vt 0.000000 1.000000
vt 1.000000 0.000000
vt 1.000000 0.028206
vt 1.000000 1.000000
vt 1.000000 1.000000
vt 1.000000 1.000000
vt 1.000000 1.000000
vt 1.000000 0.000000
vt 1.000000 0.000000
vt 1.000000 0.000000
vt 0.000000 1.000000
vt 0.000000 0.971794
vt 0.000000 0.000000
vt 0.000000 0.000000
vt 0.000000 0.000000
vt 0.000000 0.000000
vt 0.000000 1.000000
vt 0.000000 1.000000
vt 0.000000 1.000000
vt 0.028206 0.000000
vt 0.971794 1.000000
vt 0.999999 0.750000
vt 1.000000 0.625000
vt 0.000000 0.625000
vt 0.000000 0.750000
vt 0.000000 0.625000
vt 0.000000 0.750000
vt 1.000000 0.750000
vt 0.988937 0.625000
vt 1.000000 0.750000
vt 1.000000 0.625000
vt 0.000000 0.625000
vt 0.000000 0.750000
vt 1.000000 1.000000
vt -0.000000 1.000000
vt 0.000000 0.875000
vt 1.000000 0.875000
vt 0.000000 0.750000
vt 1.000000 0.750000
vt 1.000000 0.500000
vt 0.000000 0.500000
vt 0.000000 1.000000
vt 0.000000 0.875000
vt 0.975280 0.875000
vt 1.000000 0.875000
vt 0.000000 0.750000
vt 0.981895 0.750000
vt 0.996271 0.500000
vt 0.000000 0.625000
vt 0.000000 0.500000
vt 0.000000 1.000000
vt 0.000000 0.875000
vt 1.000000 0.875000
vt 1.000000 1.000000
vt 0.000000 0.750000
vt 1.000000 0.750000
vt 1.000000 0.500000
vt 0.000000 0.500000
vt 0.000000 1.000000
vt 0.000000 0.875000
vt 0.983103 0.875000
vt 1.000000 1.000000
vt 1.000000 0.875000
vt 0.000000 0.750000
vt 0.981895 0.750000
vt 0.000000 0.500000
vt 0.996271 0.500000
vt 0.000000 0.625000
vt 0.000000 1.000000
vt 1.000000 1.000000
vt 1.000000 0.875000
vt 0.000000 0.875000
vt 1.000000 0.875000
vt 0.024720 0.875000
vt 0.000000 1.000000
vt 0.000000 0.875000
vt 0.018105 0.750000
vt 1.000000 0.500000
vt 0.003729 0.500000
vt 1.000000 0.625000
vt 1.000000 1.000000
vt 1.000000 0.875000
vt 0.000000 0.875000
vt 0.000000 1.000000
vt 0.927732 0.875000
vt 1.000000 0.875000
vt 1.000000 0.750000
vt 0.929278 0.750000
vt 0.998129 0.500000
vt 0.000000 0.625000
vt 1.000000 0.625000
vt 0.073987 1.000000
vt 1.000000 1.000000
vt 1.000000 1.000000
vt 0.000000 0.825356
vt 0.000000 0.875000
vt 0.000000 1.000000
vt 0.000000 0.750000
vt 0.000000 0.750000
vt 0.000000 0.875000
vt 0.000000 0.701377
vt 0.000000 0.701377
vt 0.000000 0.500000
vt 0.000000 0.500000
vt 0.000000 0.625000
vt 0.000000 0.625000
vt 0.000000 0.625000
vt 0.000000 0.625000
vt 0.000000 0.536056
vt 0.931703 0.625000
vt 1.000000 0.625000
vt 1.000000 0.500000
vt 1.000000 0.500000
vt 1.000000 0.588457
vt 1.000000 0.625000
vt 1.000000 0.625000
vt 1.000000 0.673623
vt 1.000000 0.673623
vt 1.000000 0.750000
vt 1.000000 0.875000
vt 1.000000 0.875000
vt 1.000000 0.750000
vt 1.000000 0.910532
vt 0.000000 0.701377
vt 1.000000 0.701377
vt 1.000000 0.750000
vt 0.000000 0.701377
vt 0.994820 0.701377
vt 0.000000 0.701377
vt 1.000000 0.701377
vt 1.000000 0.750000
vt 0.005180 0.701377
vt 1.000000 0.701377
vt 0.000000 0.673623
vt 0.000000 0.673623
vt 1.000000 0.701377
vt 1.000000 0.701377
vt 1.000000 0.701377
vt 0.997531 0.673623
vt 0.997531 0.673623
vt 1.000000 0.625000
vt 1.000000 0.500000
vt 0.000000 0.701377
vt 0.072268 0.875000
vt 0.088827 0.750000
vt 0.018105 0.750000
vt 0.000000 0.875000
vt 1.000000 1.000000
vt 1.000000 1.000000
vt 0.000000 1.000000
vt 0.000000 1.000000
vt 0.024361 0.625000
vt 1.000000 0.625000
vt 1.000000 0.625000
vt 0.000000 0.625000
vt 0.000000 0.625000
vt 0.541807 0.875000
vt 0.550126 0.750000
vt 0.467979 0.750000
vt 0.458193 0.875000
vt -0.000000 1.000000
vt 0.000000 1.000000
vt 1.000000 1.000000
vt 1.000000 1.000000
vt 1.024968 1.000000
vt 0.000000 0.625000
vt 1.000000 0.625000
vt 1.000000 0.625000
vt 0.000000 0.625000
vt 0.192967 1.000000
vt 0.197780 1.000000
vt 0.410030 0.155752
vt 0.657582 0.000001
vt 0.313037 0.000001
vt 0.304075 0.222414
vt 1.000000 0.686963
vt 1.000000 0.342419
vt 0.873420 0.594572
vt 0.819243 0.702497
vt 0.495890 1.000000
vt 0.463760 1.000000
vt 0.458227 1.000000
vt 0.463041 1.000000
vt 0.288919 1.000000
vt 0.256789 1.000000
vt 0.399062 0.013502
vt 0.420521 0.000000
vt 0.296337 -0.000001
vt 0.293107 0.080164
vt 1.000000 0.703663
vt 1.000000 0.579479
vt 0.989027 0.601337
vt 0.934850 0.709262
vt 0.927974 0.750000
vt 0.927402 0.716144
vt 0.543126 0.716145
vt 0.459870 0.716144
vt 0.011063 0.625000
vt 0.000000 0.750000
vt 0.072026 0.750000
vt 0.075595 0.716144
vt 0.458170 0.750000
vt 0.541830 0.750000
vt 0.092836 0.890022
vt 0.095202 0.875000
vt 0.024720 0.875000
vt 0.470015 0.890022
vt 0.551734 0.890022
vt 0.929519 0.875000
vt 0.928913 0.890022
vt 1.000000 1.000000
vt 0.471587 0.875000
vt 0.553133 0.875000
vt 1.000000 0.967602
vt 1.000000 0.698016
vt 0.000000 0.698016
vt 0.000000 0.967602
vt 0.000000 0.967602
vt 0.000000 0.698016
vt 1.000000 0.698016
vt 1.000000 0.967602
vt 0.181721 0.924708
vt 0.457252 0.993473
vt 0.469516 1.000000
vt 0.028206 1.000000
vt 0.215745 1.000000
vn 0.8896 -0.4567 -0.0000
vn -0.0000 -0.2906 -0.9568
vn 0.0000 -0.2673 0.9636
vn -0.0000 -0.8956 -0.4449
vn -0.8896 -0.4567 0.0000
vn 0.0000 1.0000 0.0000
vn -0.0000 -0.8956 0.4449
vn 0.6697 -0.7426 0.0000
vn 0.4009 -0.8891 -0.2208
vn 0.4009 -0.8891 0.2208
vn -0.6697 -0.7426 -0.0000
vn -0.4009 -0.8891 0.2208
vn -0.4009 -0.8891 -0.2208
vn 0.9992 -0.0397 -0.0000
vn -0.0000 -0.0345 -0.9994
vn -0.9992 -0.0397 0.0000
vn 0.0000 0.0220 0.9998
vn -0.0000 -1.0000 0.0000
vn 0.9001 0.4356 0.0000
vn -0.0000 0.2753 -0.9614
vn -0.9001 0.4356 -0.0000
vn 0.0000 0.2530 0.9675
vn 0.0000 0.9275 -0.3739
vn 0.0000 0.9275 0.3739
vn 0.5907 0.8069 0.0000
vn 0.3377 0.9227 -0.1860
vn 0.3377 0.9227 0.1860
vn -0.5907 0.8069 -0.0000
vn -0.3377 0.9227 0.1860
vn -0.3377 0.9227 -0.1860
vn 0.9988 0.0498 -0.0000
vn -0.0000 0.0433 -0.9991
vn -0.9988 0.0498 0.0000
vn 0.9933 -0.1156 -0.0000
vn 0.9966 -0.0829 0.0000
vn 0.9999 -0.0166 -0.0000
vn -0.0000 -0.1005 -0.9949
vn -0.0000 -0.0720 -0.9974
vn -0.0000 -0.0144 -0.9999
vn -0.9933 -0.1156 0.0000
vn -0.9966 -0.0829 0.0000
vn -0.9999 -0.0166 0.0000
vn 0.0000 0.0617 0.9981
vn 0.0000 0.0460 0.9989
vn -0.0000 0.0092 1.0000
vn 0.9933 0.1156 -0.0000
vn 0.9966 0.0829 -0.0000
vn 0.9999 0.0166 -0.0000
vn 0.0000 0.1005 -0.9949
vn 0.0000 0.0720 -0.9974
vn -0.0000 0.0144 -0.9999
vn -0.9933 0.1156 0.0000
vn -0.9966 0.0829 0.0000
vn -0.9999 0.0166 0.0000
vn 0.0000 0.0605 0.9982
vn -0.0000 -0.0065 1.0000
vn 0.0000 -0.0930 0.9957
vn 0.0047 -0.0825 0.9966
vn 0.0000 -0.0605 0.9982
vn 0.0000 -0.0437 0.9990
vn 0.0000 -0.0121 0.9999
vn 0.0049 0.0106 0.9999
vn 0.0000 0.0207 0.9998
vn -0.0049 0.0106 0.9999
vn -0.0000 -0.0289 0.9996
vn -0.0047 -0.0825 0.9966
vn 0.9982 -0.0599 -0.0000
vn -0.0000 -0.0521 -0.9986
vn -0.9982 -0.0599 0.0000
vn 0.0000 0.0332 0.9994
vn 0.9988 -0.0498 -0.0000
vn -0.0000 -0.0433 -0.9991
vn -0.9988 -0.0498 0.0000
vn 0.0000 -0.0363 0.9993
vn 0.9999 0.0155 0.0000
vn 0.9999 -0.0110 0.0000
vn -0.9999 -0.0110 0.0000
vn -0.9999 0.0155 -0.0000
vn -0.9993 0.0371 -0.0000
vn 0.9993 0.0371 -0.0000
vn 0.9946 0.1036 -0.0000
vn 0.9970 0.0774 0.0000
vn 0.9984 0.0560 0.0000
vn -0.9984 0.0560 0.0000
vn -0.9970 0.0774 0.0000
vn -0.9946 0.1036 -0.0000
vn 0.0167 0.0669 0.9976
vn -0.0167 0.0669 0.9976
vn -0.0232 0.5921 -0.8055
vn -0.1963 0.6642 0.7213
vn 0.0399 0.1985 -0.9793
vn -0.1906 0.6879 0.7003
vn -0.0029 0.0380 0.9993
vn 0.0000 0.0330 0.9995
vn 0.0029 0.0380 0.9993
vn -0.0000 0.0451 0.9990
vn 0.0017 0.0832 0.9965
vn 0.0000 0.0859 0.9963
vn -0.0017 0.0832 0.9965
vn 0.0000 0.0739 0.9973
vn 1.0000 -0.0067 -0.0000
vn -0.9976 0.0688 0.0000
vn 0.9976 0.0688 -0.0000
vn -1.0000 -0.0067 -0.0000
vn -0.8951 -0.4457 -0.0050
vn -0.8999 -0.4350 0.0320
vn -0.8841 -0.4672 -0.0087
vn -0.8552 -0.5176 0.0267
s off
f 1/1/1 2/2/1 3/3/1 4/4/1
f 5/5/2 6/6/2 7/7/2 8/8/2
f 9/9/3 10/10/3 11/11/3 12/12/3
f 13/13/4 5/14/4 8/15/4 14/16/4
f 15/17/5 16/18/5 17/19/5 18/20/5
f 19/21/6 7/7/6 6/6/6 20/22/6
f 3/3/1 2/23/1 21/24/1 22/25/1
f 23/26/7 24/27/7 9/9/7 12/28/7
f 4/4/1 25/29/1 26/30/1 1/1/1
f 27/31/6 11/11/6 10/10/6 28/32/6
f 29/33/5 30/34/5 31/35/5 32/36/5
f 2/23/8 1/1/8 24/27/8 14/16/8
f 14/16/9 8/15/9 21/24/9 2/23/9
f 7/7/2 22/25/2 21/24/2 8/15/2
f 19/21/6 3/3/6 22/25/6 7/7/6
f 19/21/6 28/32/6 4/4/6 3/3/6
f 10/10/6 25/29/6 4/4/6 28/32/6
f 10/10/3 9/9/3 26/30/3 25/29/3
f 24/27/10 1/1/10 26/30/10 9/9/10
f 23/26/11 30/34/11 18/37/11 13/13/11
f 23/26/12 12/38/12 31/35/12 30/34/12
f 11/11/3 32/36/3 31/35/3 12/38/3
f 11/11/6 27/31/6 29/33/6 32/36/6
f 20/22/6 6/6/6 16/18/6 15/17/6
f 6/6/2 5/5/2 17/19/2 16/18/2
f 13/13/13 18/20/13 17/19/13 5/5/13
f 33/39/14 34/40/14 35/41/14 36/42/14
f 37/43/15 33/44/15 36/45/15 38/46/15
f 39/47/16 37/48/16 38/49/16 40/50/16
f 41/51/17 42/52/17 43/53/17 44/54/17
f 45/55/18 46/56/18 47/57/18 48/58/18
f 49/59/19 50/60/19 51/61/19 52/62/19
f 53/63/20 54/64/20 55/65/20 56/66/20
f 57/67/21 58/68/21 59/69/21 60/70/21
f 61/71/22 62/72/22 63/73/22 64/74/22
f 65/75/23 53/76/23 56/77/23 66/78/23
f 67/79/21 68/80/21 57/67/21 60/70/21
f 55/65/18 54/64/18 48/58/18 47/57/18
f 51/61/19 69/81/19 70/82/19 52/83/19
f 71/84/24 64/85/24 63/86/24 72/87/24
f 73/88/19 74/89/19 50/60/19 49/59/19
f 45/55/18 62/72/18 61/71/18 46/56/18
f 58/68/21 75/90/21 76/91/21 59/92/21
f 49/93/25 52/83/25 65/75/25 72/87/25
f 65/75/26 52/83/26 70/82/26 53/63/26
f 70/82/20 69/81/20 54/64/20 53/63/20
f 69/81/18 51/61/18 48/58/18 54/64/18
f 48/58/18 51/61/18 50/60/18 45/55/18
f 45/55/18 50/60/18 74/89/18 62/72/18
f 62/72/22 74/89/22 73/88/22 63/86/22
f 73/88/27 49/59/27 72/87/27 63/86/27
f 66/78/28 60/94/28 59/92/28 71/84/28
f 71/84/29 59/92/29 76/91/29 64/74/29
f 76/91/22 75/90/22 61/71/22 64/74/22
f 61/71/18 75/90/18 58/68/18 46/56/18
f 46/56/18 58/68/18 57/67/18 47/57/18
f 47/57/18 57/67/18 68/80/18 55/65/18
f 55/65/20 68/80/20 67/79/20 56/77/20
f 67/79/30 60/70/30 66/78/30 56/77/30
f 77/95/31 78/96/31 79/97/31 80/98/31
f 78/99/32 77/100/32 81/101/32 82/102/32
f 83/103/33 84/104/33 82/105/33 81/106/33
f 14/107/34 24/108/34 85/109/34 86/110/34
f 86/110/35 85/109/35 87/111/35 88/112/35
f 89/113/36 36/42/36 35/41/36 90/114/36
f 14/115/37 86/116/37 91/117/37 13/13/37
f 91/118/38 86/116/38 88/119/38 92/120/38
f 93/121/39 38/46/39 36/122/39 89/123/39
f 13/124/40 91/125/40 94/126/40 23/127/40
f 91/125/41 92/128/41 95/129/41 94/126/41
f 96/130/42 40/50/42 38/49/42 93/131/42
f 97/132/43 98/133/43 99/134/43 100/135/43
f 99/136/44 98/133/44 101/137/44 102/138/44
f 103/139/45 104/140/45 44/54/45 43/141/45
f 72/142/46 65/143/46 105/144/46 106/145/46
f 105/144/47 77/95/47 80/98/47 106/145/47
f 89/113/48 90/114/48 79/97/48 78/96/48
f 66/78/49 107/146/49 105/147/49 65/148/49
f 105/149/50 107/146/50 81/101/50 77/150/50
f 93/151/51 89/152/51 78/99/51 82/153/51
f 71/154/52 108/155/52 107/156/52 66/157/52
f 108/155/53 83/103/53 81/106/53 107/156/53
f 93/131/54 82/105/54 84/104/54 96/130/54
f 109/158/55 106/159/55 80/160/55 110/161/55
f 104/162/56 103/139/56 111/163/56 112/164/56
f 23/26/57 113/165/57 114/166/57 24/167/57
f 94/168/58 115/169/58 113/170/58 23/26/58
f 95/171/59 116/172/59 115/169/59 94/173/59
f 117/174/60 118/175/60 116/172/60 95/171/60
f 96/176/61 119/177/61 120/178/61 40/179/61
f 96/176/62 84/180/62 121/181/62 119/182/62
f 122/183/63 121/181/63 84/180/63 79/184/63
f 90/185/64 123/186/64 122/187/64 79/184/64
f 90/185/61 35/188/61 124/189/61 123/186/61
f 125/190/65 124/189/65 35/188/65 34/191/65
f 87/192/59 85/193/59 126/194/59 127/195/59
f 85/193/66 24/167/66 114/166/66 126/196/66
f 87/111/67 128/197/67 129/198/67 88/112/67
f 92/199/68 88/119/68 129/200/68 130/201/68
f 92/128/69 130/202/69 117/203/69 95/129/69
f 102/204/70 101/137/70 131/205/70 132/206/70
f 40/179/65 120/178/65 133/207/65 39/208/65
f 127/195/60 134/209/60 128/210/60 87/192/60
f 129/198/71 128/197/71 34/40/71 33/39/71
f 130/211/72 129/200/72 33/44/72 37/212/72
f 39/47/73 117/203/73 130/202/73 37/48/73
f 118/175/74 133/207/74 125/213/74 134/209/74
f 39/208/74 133/207/74 118/175/74 117/174/74
f 34/191/74 128/210/74 134/209/74 125/190/74
f 119/177/75 103/139/75 43/141/75 120/178/75
f 121/181/76 111/163/76 103/139/76 119/177/76
f 112/164/6 111/163/6 121/181/6 122/214/6
f 122/214/77 123/186/77 104/215/77 112/164/77
f 123/186/78 124/189/78 44/54/78 104/215/78
f 125/190/79 41/51/79 44/54/79 124/189/79
f 133/207/18 42/52/18 41/51/18 125/190/18
f 120/178/80 43/141/80 42/52/80 133/207/80
f 97/132/18 100/135/18 114/166/18 113/170/18
f 115/169/81 98/133/81 97/132/81 113/170/81
f 116/172/82 101/137/82 98/133/82 115/169/82
f 116/172/83 118/175/83 131/216/83 101/137/83
f 132/206/6 131/216/6 118/175/6 134/209/6
f 127/195/84 102/204/84 132/206/84 134/209/84
f 127/195/85 126/194/85 99/136/85 102/204/85
f 126/194/86 114/166/86 100/135/86 99/136/86
f 135/217/55 136/218/55 83/219/55 108/220/55
f 137/221/18 138/222/18 139/223/18 140/224/18
f 141/225/87 139/223/87 138/222/87 142/226/87
f 143/227/6 144/228/6 141/229/6 142/226/6
f 145/230/55 146/231/55 147/232/55 148/233/55
f 149/234/18 150/235/18 151/236/18 152/237/18
f 151/238/88 150/235/88 153/239/88 154/240/88
f 155/241/6 154/240/6 153/239/6 156/242/6
f 157/243/6 158/244/6 29/33/6 27/31/6
f 157/245/89 159/246/89 160/247/89 158/248/89
f 160/249/90 159/250/90 161/251/90 162/252/90
f 163/253/6 164/254/6 20/22/6 15/17/6
f 165/255/6 166/256/6 162/257/6 161/258/6
f 165/259/91 167/260/91 168/261/91 166/262/91
f 168/263/92 167/264/92 164/265/92 163/266/92
f 110/267/93 80/160/93 79/184/93 156/268/93
f 155/269/94 156/268/94 79/184/94 143/270/94
f 84/271/95 83/272/95 136/273/95 144/274/95
f 79/184/94 84/271/94 144/274/94 143/270/94
f 155/269/96 143/270/96 147/275/96 146/276/96
f 140/277/97 135/278/97 108/279/97 71/84/97
f 137/280/98 140/277/98 71/84/98 152/281/98
f 106/159/99 109/282/99 149/283/99 72/284/99
f 71/84/98 72/284/98 149/283/98 152/281/98
f 148/285/100 137/280/100 152/281/100 145/286/100
f 138/222/101 137/221/101 148/287/101 147/288/101
f 142/226/101 138/222/101 147/288/101 143/227/101
f 141/229/102 144/228/102 136/289/102 135/290/102
f 139/223/102 141/229/102 135/290/102 140/224/102
f 150/235/103 149/234/103 109/291/103 110/292/103
f 153/239/103 150/235/103 110/292/103 156/242/103
f 154/240/104 155/241/104 146/293/104 145/294/104
f 151/236/104 154/240/104 145/294/104 152/237/104
f 159/295/6 157/243/6 27/31/6 28/32/6
f 159/295/6 28/32/6 19/21/6 20/22/6
f 20/22/6 164/254/6 167/296/6 159/295/6
f 161/258/6 159/295/6 167/296/6 165/255/6
f 163/253/105 15/17/105 18/20/105 168/297/105
f 30/298/106 29/33/106 158/244/106 160/299/106
f 18/20/107 30/298/107 160/299/107 162/257/107
f 168/297/108 18/20/108 162/257/108 166/256/108
