# Blender 3.3.1
# www.blender.org
g 1.001_Text.011
v 0.062066 0.000000 0.182155
v -0.000529 0.000000 -0.243035
v -0.000529 0.000000 0.182155
vn -0.0000 1.0000 -0.0000
vt 0.888889 0.000000
vt 0.444444 0.000000
vt 0.333333 0.000000
s 0
f 3/3/1 1/1/1 2/2/1
g 1.002_Text.012
v 0.062066 0.000000 0.182156
v -0.000529 0.000000 -0.243035
v 0.062066 0.000000 -0.322425
vn -0.0000 1.0000 -0.0000
vt 0.888889 0.000000
vt 0.444444 0.000000
vt 0.777778 0.000000
s 0
f 5/5/2 4/4/2 6/6/2
g 1.003_Text.013
v -0.000529 0.000000 -0.243035
v 0.062066 0.000000 -0.322425
v -0.127247 0.000000 -0.264791
vn -0.0000 1.0000 -0.0000
vt 0.444444 0.000000
vt 0.777778 0.000000
vt 0.666667 0.000000
s 0
f 9/9/3 7/7/3 8/8/3
g 1.004_Text.014
v -0.000529 0.000000 -0.243035
v -0.127247 0.000000 -0.264791
v -0.127247 0.000000 -0.205249
vn -0.0000 1.0000 -0.0000
vt 0.444444 0.000000
vt 0.666667 0.000000
vt 0.555556 0.000000
s 0
f 12/12/4 10/10/4 11/11/4
g 1.005_Text.015
v 0.185348 0.000000 0.237117
v -0.124194 0.000000 0.237117
v 0.185348 0.000000 0.182156
vn -0.0000 1.0000 -0.0000
vt 0.000000 0.000000
vt 0.111111 0.000000
vt 1.000000 0.000000
s 0
f 14/14/5 13/13/5 15/15/5
g 1.006_Text.016
v -0.124194 0.000000 0.237117
v 0.185348 0.000000 0.182155
v 0.062066 0.000000 0.182155
vn -0.0000 1.0000 -0.0000
vt 0.111111 0.000000
vt 1.000000 0.000000
vt 0.888889 0.000000
s 0
f 16/16/6 17/17/6 18/18/6
g 1.007_Text.017
v -0.124194 0.000000 0.237117
v 0.062066 0.000000 0.182155
v -0.000529 0.000000 0.182155
vn -0.0000 1.0000 -0.0000
vt 0.111111 0.000000
vt 0.888889 0.000000
vt 0.333333 0.000000
s 0
f 19/19/7 20/20/7 21/21/7
g 1.008_Text.018
v -0.124194 0.000000 0.237117
v -0.000529 0.000000 0.182155
v -0.124194 0.000000 0.182155
vn -0.0000 1.0000 -0.0000
vt 0.111111 0.000000
vt 0.333333 0.000000
vt 0.222222 0.000000
s 0
f 22/22/8 23/23/8 24/24/8
