# Blender 3.3.1
# www.blender.org
g 7_Text.004
g 7.001_Text.043
v 0.163749 0.000000 -0.220691
v 0.087031 0.000000 -0.184049
v -0.053045 0.000000 0.306790
v -0.117931 0.000000 0.306790
vn -0.0000 1.0000 -0.0000
vt 0.000000 0.000000
vt 0.500000 0.000000
vt 0.166667 0.000000
vt 0.333333 0.000000
s 0
f 3/3/1 1/1/1 2/2/1 4/4/1
g 7.002_Text.044
v 0.163749 0.000000 -0.220691
v -0.188923 0.000000 -0.184049
v 0.163749 0.000000 -0.240538
v 0.087031 0.000000 -0.184049
v -0.188923 0.000000 -0.240538
vn -0.0000 1.0000 -0.0000
vt 0.000000 0.000000
vt 0.666667 0.000000
vt 1.000000 0.000000
vt 0.500000 0.000000
vt 0.833333 0.000000
s 0
f 6/6/2 8/8/2 5/5/2 7/7/2 9/9/2
