# Blender 3.3.1
# www.blender.org
mtllib device.mtl
g Keyboard_Input_Keyboard_Input
v -0.248348 -0.023377 0.295639
v -0.248348 -0.023377 -0.329361
v -0.248348 -0.002207 0.295639
v -0.248348 -0.002207 -0.329361
v 0.251652 -0.023377 -0.329361
v 0.251652 -0.023377 0.295639
v 0.251652 -0.002207 -0.329361
v 0.251652 -0.002207 0.295639
v -0.222248 -0.002207 0.295639
v 0.228112 -0.002207 0.295639
v -0.222248 -0.002207 -0.329361
v 0.228112 -0.002207 -0.329361
v 0.228112 -0.002207 -0.308950
v -0.222248 -0.002207 -0.308950
v 0.228112 -0.002207 0.275764
v -0.222248 -0.002207 0.275764
v 0.228112 -0.002207 -0.203800
v -0.222248 -0.002207 -0.203800
v -0.222248 -0.022155 -0.308950
v 0.228112 -0.022155 -0.308950
v 0.228112 -0.022155 -0.203800
v -0.222248 -0.022155 -0.203800
vn -0.0000 -0.0000 1.0000
vn -0.0000 1.0000 -0.0000
vn -1.0000 -0.0000 -0.0000
vn 1.0000 -0.0000 -0.0000
vn -0.0000 -1.0000 -0.0000
vn -0.0000 -0.0000 -1.0000
vt 0.969294 0.464961
vt 0.969294 0.581201
vt 0.464961 0.581201
vt 0.969294 0.000000
vt 0.464961 0.000000
vt 0.988651 0.464961
vt 0.464961 0.581201
vt 0.949608 0.581201
vt 0.464961 0.000000
vt 0.949608 0.000000
vt 0.929921 0.000000
vt 0.969294 0.000000
vt 0.929921 0.581201
vt 0.000000 0.000000
vt 0.949608 0.000000
vt 0.988651 0.000000
vt 0.000000 0.581201
vt 0.949608 0.581201
vt 0.988651 0.440690
vt 0.440690 0.581201
vt 0.988651 0.021890
vt 0.021890 0.581201
vt 0.440690 0.000000
vt 0.021890 0.000000
vt 0.021890 0.018981
vt 0.987534 0.464961
vt 0.787748 0.581201
vt 0.440690 0.018981
vt 0.987534 0.883760
vt 0.806298 0.678982
vt 0.021890 0.562718
vt 0.440690 0.562718
vt 0.021890 0.116762
vt 0.787748 0.678982
vt 0.191325 0.581201
vt 0.440690 0.116762
vt 0.806298 0.776763
vt 0.191325 1.000000
vt 0.097781 1.000000
vt 0.969294 0.883760
vt 0.787748 0.678982
vt 0.097781 0.581201
vt 0.969294 0.464961
vt 0.806298 0.581201
vt 0.000000 0.581201
vt 0.806298 0.678982
vt 0.209467 0.581201
vt 0.000000 1.000000
vt 0.787748 0.776763
vt 0.209467 1.000000
s 0
usemtl m_keyboard
f 10/21/1 6/12/1 8/16/1
f 10/21/1 9/19/1 6/12/1
f 3/6/1 1/1/1 6/12/1
f 9/19/1 3/6/1 6/12/1
f 7/14/2 12/24/2 13/25/2
f 7/14/2 13/25/2 17/33/2
f 8/17/2 7/14/2 17/33/2
f 15/31/2 8/17/2 17/33/2
f 8/17/2 15/31/2 10/22/2
f 14/28/2 11/23/2 4/9/2
f 18/36/2 14/28/2 4/9/2
f 4/9/2 3/7/2 18/36/2
f 3/7/2 16/32/2 18/36/2
f 3/7/2 9/20/2 16/32/2
f 4/10/3 2/4/3 1/2/3
f 1/2/3 3/8/3 4/10/3
f 8/18/4 6/13/4 5/11/4
f 5/11/4 7/15/4 8/18/4
f 1/3/5 2/5/5 5/11/5
f 5/11/5 6/13/5 1/3/5
f 13/25/2 12/24/2 11/23/2
f 11/23/2 14/28/2 13/25/2
f 10/22/2 15/31/2 16/32/2
f 16/32/2 9/20/2 10/22/2
f 21/45/2 20/42/2 19/39/2
f 19/39/2 22/48/2 21/45/2
f 15/31/2 17/33/2 18/36/2
f 18/36/2 16/32/2 15/31/2
f 20/43/1 13/26/1 14/29/1
f 14/29/1 19/40/1 20/43/1
f 19/41/4 14/30/4 18/37/4
f 18/37/4 22/49/4 19/41/4
f 21/46/3 17/34/3 13/27/3
f 13/27/3 20/44/3 21/46/3
f 22/50/6 18/38/6 17/35/6
f 17/35/6 21/47/6 22/50/6
g Keyboard_Input.001_Keyboard_Input.001
g Keyboard_Input.002_Keyboard_Input.002
v -0.075347 -0.003041 -0.135713
v -0.175347 -0.003041 -0.135713
v -0.075347 0.001286 -0.135713
v -0.175347 0.001286 -0.135713
v -0.175349 -0.003041 -0.186009
v -0.175349 0.001286 -0.186009
v -0.075349 -0.003041 -0.186009
v -0.075349 0.001286 -0.186009
v -0.079766 0.005852 -0.137934
v -0.170928 0.005852 -0.137934
v -0.079768 0.005852 -0.183785
v -0.170930 0.005852 -0.183785
vn -0.0000 -0.0000 1.0000
vn -1.0000 -0.0000 -0.0000
vn -0.0000 -0.0000 -1.0000
vn 1.0000 -0.0000 -0.0000
vn -0.0000 1.0000 -0.0000
vn -0.0000 0.4374 0.8992
vn 0.7186 0.6954 -0.0000
vn -0.7186 0.6954 -0.0000
vn -0.0000 0.4379 -0.8990
vt 0.226482 0.767189
vt 0.429630 0.813960
vt 0.226482 0.860180
vt 0.446170 0.813960
vt 0.230438 0.767189
vt 0.433654 0.813960
vt 0.230438 0.860180
vt 0.442146 0.813960
vt 0.446170 0.767189
vt 0.806298 0.581201
vt 0.442146 0.767189
vt 0.810233 0.581201
vt 0.806298 0.674192
vt 0.429630 0.767189
vt 0.433654 0.767189
vt 0.810233 0.674192
vt 0.766588 0.758970
vt 0.234989 0.771298
vt 0.437900 0.811894
vt 0.766588 0.674197
vt 0.234989 0.856071
vt 0.437900 0.811895
vt 0.723950 0.758968
vt 0.437900 0.769257
vt 0.814817 0.670084
vt 0.723950 0.674195
vt 0.437900 0.769257
vt 0.814817 0.585310
s 0
usemtl m_keyboard_key
f 25/55/7 26/57/7 24/53/7 23/51/7
f 26/58/8 28/61/8 27/59/8 24/54/8
f 28/62/9 30/66/9 29/63/9 27/60/9
f 30/65/10 25/56/10 23/52/10 29/64/10
f 33/73/11 34/76/11 32/70/11 31/67/11
f 31/68/12 32/71/12 26/57/12 25/55/12
f 33/74/13 31/69/13 25/56/13 30/65/13
f 32/72/14 34/77/14 28/61/14 26/58/14
f 34/78/15 33/75/15 30/66/15 28/62/15
g Keyboard_Input.003_Keyboard_Input.003
v 0.049653 -0.003041 -0.135713
v -0.050347 -0.003041 -0.135713
v 0.049653 0.001286 -0.135713
v -0.050347 0.001286 -0.135713
v -0.050349 -0.003041 -0.186009
v -0.050349 0.001286 -0.186009
v 0.049651 -0.003041 -0.186009
v 0.049651 0.001286 -0.186009
v 0.045234 0.005852 -0.137934
v -0.045928 0.005852 -0.137934
v 0.045232 0.005852 -0.183785
v -0.045930 0.005852 -0.183785
vn -0.0000 -0.0000 1.0000
vn -1.0000 -0.0000 -0.0000
vn -0.0000 -0.0000 -1.0000
vn 1.0000 -0.0000 -0.0000
vn -0.0000 1.0000 -0.0000
vn -0.0000 0.4374 0.8992
vn 0.7186 0.6954 -0.0000
vn -0.7186 0.6954 -0.0000
vn -0.0000 0.4379 -0.8990
vt 0.209467 0.767189
vt 0.413091 0.813960
vt 0.209467 0.860180
vt 0.429630 0.813960
vt 0.349781 0.767189
vt 0.213423 0.767189
vt 0.417115 0.813960
vt 0.349781 0.674197
vt 0.213423 0.860180
vt 0.425607 0.813960
vt 0.429630 0.767189
vt 0.840374 0.674193
vt 0.303010 0.674195
vt 0.425607 0.767189
vt 0.844309 0.674193
vt 0.840374 0.767185
vt 0.413091 0.767189
vt 0.303010 0.767187
vt 0.417115 0.767189
vt 0.844309 0.767185
vt 0.217974 0.771298
vt 0.421361 0.811894
vt 0.217974 0.856071
vt 0.421361 0.811894
vt 0.421361 0.769257
vt 0.848893 0.763076
vt 0.421361 0.769257
vt 0.848893 0.678302
s 0
usemtl m_keyboard_key
f 37/84/16 38/87/16 36/81/16 35/79/16
f 38/88/17 40/92/17 39/89/17 36/82/17
f 40/93/18 42/98/18 41/94/18 39/90/18
f 42/97/19 37/85/19 35/80/19 41/95/19
f 42/96/20 40/91/20 38/86/20 37/83/20
f 43/99/21 44/101/21 38/87/21 37/84/21
f 45/103/22 43/100/22 37/85/22 42/97/22
f 44/102/23 46/105/23 40/92/23 38/88/23
f 46/106/24 45/104/24 42/98/24 40/93/24
g Keyboard_Input.004_Keyboard_Input.004
v 0.174653 -0.003041 -0.135713
v 0.074653 -0.003041 -0.135713
v 0.174653 0.001286 -0.135713
v 0.074653 0.001286 -0.135713
v 0.074651 -0.003041 -0.186009
v 0.074651 0.001286 -0.186009
v 0.174651 -0.003041 -0.186009
v 0.174651 0.001286 -0.186009
v 0.170234 0.005852 -0.137934
v 0.079072 0.005852 -0.137934
v 0.170232 0.005852 -0.183785
v 0.079070 0.005852 -0.183785
vn -0.0000 -0.0000 1.0000
vn -1.0000 -0.0000 -0.0000
vn -0.0000 -0.0000 -1.0000
vn 1.0000 -0.0000 -0.0000
vn -0.0000 1.0000 -0.0000
vn -0.0000 0.4374 0.8992
vn 0.7186 0.6954 -0.0000
vn -0.7186 0.6954 -0.0000
vn -0.0000 0.4379 -0.8990
vt 0.217974 0.767189
vt 0.396552 0.813960
vt 0.217974 0.860180
vt 0.383844 0.813960
vt 0.677178 0.767189
vt 0.221931 0.767189
vt 0.400575 0.813960
vt 0.677178 0.674197
vt 0.221931 0.860180
vt 0.379820 0.813960
vt 0.383844 0.767189
vt 0.806298 0.678982
vt 0.630407 0.674195
vt 0.379820 0.767189
vt 0.810233 0.678982
vt 0.806298 0.771974
vt 0.396552 0.767189
vt 0.630407 0.767187
vt 0.400575 0.767189
vt 0.810233 0.771974
vt 0.226482 0.771298
vt 0.404821 0.811894
vt 0.226482 0.856071
vt 0.375574 0.811895
vt 0.404821 0.769256
vt 0.814817 0.767865
vt 0.375574 0.769257
vt 0.814817 0.683091
s 0
usemtl m_keyboard_key
f 49/112/25 50/115/25 48/109/25 47/107/25
f 50/116/26 52/120/26 51/117/26 48/110/26
f 52/121/27 54/126/27 53/122/27 51/118/27
f 54/125/28 49/113/28 47/108/28 53/123/28
f 54/124/29 52/119/29 50/114/29 49/111/29
f 55/127/30 56/129/30 50/115/30 49/112/30
f 57/131/31 55/128/31 49/113/31 54/125/31
f 56/130/32 58/133/32 52/120/32 50/116/32
f 58/134/33 57/132/33 54/126/33 52/121/33
g Keyboard_Input.005_Keyboard_Input.005
v -0.075347 -0.003041 -0.034213
v -0.175347 -0.003041 -0.034213
v -0.075347 0.001286 -0.034213
v -0.175347 0.001286 -0.034213
v -0.175349 -0.003041 -0.084509
v -0.175349 0.001286 -0.084509
v -0.075349 -0.003041 -0.084509
v -0.075349 0.001286 -0.084509
v -0.079766 0.005852 -0.036434
v -0.170928 0.005852 -0.036434
v -0.079768 0.005852 -0.082285
v -0.170930 0.005852 -0.082285
vn -0.0000 -0.0000 1.0000
vn -1.0000 -0.0000 -0.0000
vn -0.0000 -0.0000 -1.0000
vn 1.0000 -0.0000 -0.0000
vn -0.0000 1.0000 -0.0000
vn -0.0000 0.4374 0.8992
vn 0.7186 0.6954 -0.0000
vn -0.7186 0.6954 -0.0000
vn -0.0000 0.4379 -0.8990
vt 0.848893 0.767185
vt 0.359035 0.813960
vt 0.848893 0.860177
vt 0.375574 0.813960
vt 0.583636 0.767189
vt 0.852850 0.767185
vt 0.363058 0.813960
vt 0.583636 0.674197
vt 0.852850 0.860177
vt 0.371550 0.813960
vt 0.375574 0.767189
vt 0.814817 0.581201
vt 0.536865 0.674195
vt 0.371550 0.767189
vt 0.818752 0.581201
vt 0.814817 0.674192
vt 0.359035 0.767189
vt 0.536865 0.767187
vt 0.363058 0.767189
vt 0.818752 0.674192
vt 0.857401 0.771294
vt 0.367304 0.811894
vt 0.857401 0.856068
vt 0.367304 0.811895
vt 0.367304 0.769257
vt 0.823336 0.670084
vt 0.367304 0.769257
vt 0.823336 0.585310
s 0
usemtl m_keyboard_key
f 61/140/34 62/143/34 60/137/34 59/135/34
f 62/144/35 64/148/35 63/145/35 60/138/35
f 64/149/36 66/154/36 65/150/36 63/146/36
f 66/153/37 61/141/37 59/136/37 65/151/37
f 66/152/38 64/147/38 62/142/38 61/139/38
f 67/155/39 68/157/39 62/143/39 61/140/39
f 69/159/40 67/156/40 61/141/40 66/153/40
f 68/158/41 70/161/41 64/148/41 62/144/41
f 70/162/42 69/160/42 66/154/42 64/149/42
g Keyboard_Input.006_Keyboard_Input.006
v 0.049653 -0.003041 -0.034213
v -0.050347 -0.003041 -0.034213
v 0.049653 0.001286 -0.034213
v -0.050347 0.001286 -0.034213
v -0.050349 -0.003041 -0.084509
v -0.050349 0.001286 -0.084509
v 0.049651 -0.003041 -0.084509
v 0.049651 0.001286 -0.084509
v 0.045234 0.005852 -0.036434
v -0.045928 0.005852 -0.036434
v 0.045232 0.005852 -0.082285
v -0.045930 0.005852 -0.082285
vn -0.0000 -0.0000 1.0000
vn -1.0000 -0.0000 -0.0000
vn -0.0000 -0.0000 -1.0000
vn 1.0000 -0.0000 -0.0000
vn -0.0000 1.0000 -0.0000
vn -0.0000 0.4374 0.8992
vn 0.7186 0.6954 -0.0000
vn -0.7186 0.6954 -0.0000
vn -0.0000 0.4379 -0.8990
vt 0.840363 0.767185
vt 0.325956 0.813960
vt 0.840363 0.860177
vt 0.350765 0.813960
vt 0.490094 0.767189
vt 0.844319 0.767185
vt 0.329980 0.813960
vt 0.490094 0.674197
vt 0.844319 0.860177
vt 0.346741 0.813960
vt 0.350765 0.767189
vt 0.723950 0.758970
vt 0.443323 0.674195
vt 0.346741 0.767189
vt 0.727885 0.758970
vt 0.723950 0.851962
vt 0.325956 0.767189
vt 0.443323 0.767187
vt 0.329980 0.767189
vt 0.727885 0.851962
vt 0.848871 0.771294
vt 0.334226 0.811894
vt 0.848871 0.856068
vt 0.342495 0.811894
vt 0.334226 0.769257
vt 0.732469 0.847853
vt 0.342495 0.769257
vt 0.732469 0.763080
s 0
usemtl m_keyboard_key
f 73/168/43 74/171/43 72/165/43 71/163/43
f 74/172/44 76/176/44 75/173/44 72/166/44
f 76/177/45 78/182/45 77/178/45 75/174/45
f 78/181/46 73/169/46 71/164/46 77/179/46
f 78/180/47 76/175/47 74/170/47 73/167/47
f 79/183/48 80/185/48 74/171/48 73/168/48
f 81/187/49 79/184/49 73/169/49 78/181/49
f 80/186/50 82/189/50 76/176/50 74/172/50
f 82/190/51 81/188/51 78/182/51 76/177/51
g Keyboard_Input.007_Keyboard_Input.007
v 0.174653 -0.003041 -0.034213
v 0.074653 -0.003041 -0.034213
v 0.174653 0.001286 -0.034213
v 0.074653 0.001286 -0.034213
v 0.074651 -0.003041 -0.084509
v 0.074651 0.001286 -0.084509
v 0.174651 -0.003041 -0.084509
v 0.174651 0.001286 -0.084509
v 0.170234 0.005852 -0.036434
v 0.079072 0.005852 -0.036434
v 0.170232 0.005852 -0.082285
v 0.079070 0.005852 -0.082285
vn -0.0000 -0.0000 1.0000
vn -1.0000 -0.0000 -0.0000
vn -0.0000 -0.0000 -1.0000
vn 1.0000 -0.0000 -0.0000
vn -0.0000 1.0000 -0.0000
vn -0.0000 0.4374 0.8992
vn 0.7186 0.6954 -0.0000
vn -0.7186 0.6954 -0.0000
vn -0.0000 0.4379 -0.8990
vt 0.848893 0.674193
vt 0.317686 0.813960
vt 0.848893 0.767185
vt 0.454439 0.813960
vt 0.677178 0.674194
vt 0.852850 0.674193
vt 0.321710 0.813960
vt 0.677178 0.581203
vt 0.852850 0.767185
vt 0.450416 0.813960
vt 0.454439 0.767189
vt 0.823336 0.581201
vt 0.630407 0.581201
vt 0.450416 0.767189
vt 0.827271 0.581201
vt 0.823336 0.674192
vt 0.317686 0.767189
vt 0.630407 0.674192
vt 0.321710 0.767189
vt 0.827271 0.674192
vt 0.857401 0.678302
vt 0.325956 0.811894
vt 0.857401 0.763076
vt 0.446170 0.811895
vt 0.325956 0.769256
vt 0.831855 0.670084
vt 0.446170 0.769257
vt 0.831855 0.585310
s 0
usemtl m_keyboard_key
f 85/196/52 86/199/52 84/193/52 83/191/52
f 86/200/53 88/204/53 87/201/53 84/194/53
f 88/205/54 90/210/54 89/206/54 87/202/54
f 90/209/55 85/197/55 83/192/55 89/207/55
f 90/208/56 88/203/56 86/198/56 85/195/56
f 91/211/57 92/213/57 86/199/57 85/196/57
f 93/215/58 91/212/58 85/197/58 90/209/58
f 92/214/59 94/217/59 88/204/59 86/200/59
f 94/218/60 93/216/60 90/210/60 88/205/60
g Keyboard_Input.008_Keyboard_Input.008
v -0.075347 -0.003041 0.067287
v -0.175347 -0.003041 0.067287
v -0.075347 0.001286 0.067287
v -0.175347 0.001286 0.067287
v -0.175349 -0.003041 0.016991
v -0.175349 0.001286 0.016991
v -0.075349 -0.003041 0.016991
v -0.075349 0.001286 0.016991
v -0.079766 0.005852 0.065066
v -0.170928 0.005852 0.065066
v -0.079768 0.005852 0.019215
v -0.170930 0.005852 0.019215
vn -0.0000 -0.0000 1.0000
vn -1.0000 -0.0000 -0.0000
vn -0.0000 -0.0000 -1.0000
vn 1.0000 -0.0000 -0.0000
vn -0.0000 1.0000 -0.0000
vn -0.0000 0.4374 0.8992
vn 0.7186 0.6954 -0.0000
vn -0.7186 0.6954 -0.0000
vn -0.0000 0.4379 -0.8990
vt 0.749560 0.758970
vt 0.292877 0.813960
vt 0.749560 0.851962
vt 0.317686 0.813960
vt 0.536865 0.674194
vt 0.753517 0.758970
vt 0.296901 0.813960
vt 0.536865 0.581203
vt 0.753517 0.851962
vt 0.313663 0.813960
vt 0.317686 0.767189
vt 0.814817 0.678982
vt 0.490094 0.581201
vt 0.313663 0.767189
vt 0.818752 0.678982
vt 0.814817 0.771974
vt 0.292877 0.767189
vt 0.490094 0.674192
vt 0.296901 0.767189
vt 0.818752 0.771974
vt 0.758068 0.763080
vt 0.301147 0.811894
vt 0.758068 0.847853
vt 0.309417 0.811895
vt 0.301147 0.769257
vt 0.823336 0.767865
vt 0.309417 0.769257
vt 0.823336 0.683091
s 0
usemtl m_keyboard_key
f 97/224/61 98/227/61 96/221/61 95/219/61
f 98/228/62 100/232/62 99/229/62 96/222/62
f 100/233/63 102/238/63 101/234/63 99/230/63
f 102/237/64 97/225/64 95/220/64 101/235/64
f 102/236/65 100/231/65 98/226/65 97/223/65
f 103/239/66 104/241/66 98/227/66 97/224/66
f 105/243/67 103/240/67 97/225/67 102/237/67
f 104/242/68 106/245/68 100/232/68 98/228/68
f 106/246/69 105/244/69 102/238/69 100/233/69
g Keyboard_Input.009_Keyboard_Input.009
v 0.049653 -0.003041 0.067287
v -0.050347 -0.003041 0.067287
v 0.049653 0.001286 0.067287
v -0.050347 0.001286 0.067287
v -0.050349 -0.003041 0.016991
v -0.050349 0.001286 0.016991
v 0.049651 -0.003041 0.016991
v 0.049651 0.001286 0.016991
v 0.045234 0.005852 0.065066
v -0.045928 0.005852 0.065066
v 0.045232 0.005852 0.019215
v -0.045930 0.005852 0.019215
vn -0.0000 -0.0000 1.0000
vn -1.0000 -0.0000 -0.0000
vn -0.0000 -0.0000 -1.0000
vn 1.0000 -0.0000 -0.0000
vn -0.0000 1.0000 -0.0000
vn -0.0000 0.4374 0.8992
vn 0.7186 0.6954 -0.0000
vn -0.7186 0.6954 -0.0000
vn -0.0000 0.4379 -0.8990
vt 0.741052 0.758970
vt 0.268068 0.813960
vt 0.741052 0.851962
vt 0.284608 0.813960
vt 0.396552 0.674194
vt 0.745009 0.758970
vt 0.272092 0.813960
vt 0.396552 0.581203
vt 0.745009 0.851962
vt 0.280584 0.813960
vt 0.284608 0.767189
vt 0.758068 0.758970
vt 0.349781 0.581201
vt 0.280584 0.767189
vt 0.762003 0.758970
vt 0.758068 0.851962
vt 0.268068 0.767189
vt 0.349781 0.674192
vt 0.272092 0.767189
vt 0.762003 0.851962
vt 0.749560 0.763080
vt 0.276338 0.811894
vt 0.749560 0.847853
vt 0.276338 0.811894
vt 0.276338 0.769257
vt 0.766587 0.847853
vt 0.276338 0.769257
vt 0.766587 0.763080
s 0
usemtl m_keyboard_key
f 109/252/70 110/255/70 108/249/70 107/247/70
f 110/256/71 112/260/71 111/257/71 108/250/71
f 112/261/72 114/266/72 113/262/72 111/258/72
f 114/265/73 109/253/73 107/248/73 113/263/73
f 114/264/74 112/259/74 110/254/74 109/251/74
f 115/267/75 116/269/75 110/255/75 109/252/75
f 117/271/76 115/268/76 109/253/76 114/265/76
f 116/270/77 118/273/77 112/260/77 110/256/77
f 118/274/78 117/272/78 114/266/78 112/261/78
g Keyboard_Input.010_Keyboard_Input.010
v 0.174653 -0.003041 0.067287
v 0.074653 -0.003041 0.067287
v 0.174653 0.001286 0.067287
v 0.074653 0.001286 0.067287
v 0.074651 -0.003041 0.016991
v 0.074651 0.001286 0.016991
v 0.174651 -0.003041 0.016991
v 0.174651 0.001286 0.016991
v 0.170234 0.005852 0.065066
v 0.079072 0.005852 0.065066
v 0.170232 0.005852 0.019215
v 0.079070 0.005852 0.019215
vn -0.0000 -0.0000 1.0000
vn -1.0000 -0.0000 -0.0000
vn -0.0000 -0.0000 -1.0000
vn 1.0000 -0.0000 -0.0000
vn -0.0000 1.0000 -0.0000
vn -0.0000 0.4374 0.8992
vn 0.7186 0.6954 -0.0000
vn -0.7186 0.6954 -0.0000
vn -0.0000 0.4379 -0.8990
vt 0.732469 0.758970
vt 0.251529 0.813960
vt 0.732469 0.851962
vt 0.268068 0.813960
vt 0.303009 0.674194
vt 0.736425 0.758970
vt 0.255552 0.813960
vt 0.303009 0.581203
vt 0.736425 0.851962
vt 0.264045 0.813960
vt 0.268068 0.767189
vt 0.840374 0.581201
vt 0.256238 0.581201
vt 0.264045 0.767189
vt 0.844309 0.581201
vt 0.840374 0.674192
vt 0.251529 0.767189
vt 0.256238 0.674192
vt 0.255552 0.767189
vt 0.844309 0.674192
vt 0.740977 0.763080
vt 0.259798 0.811894
vt 0.740977 0.847853
vt 0.259799 0.811895
vt 0.259798 0.769256
vt 0.848893 0.670084
vt 0.259799 0.769257
vt 0.848893 0.585310
s 0
usemtl m_keyboard_key
f 121/280/79 122/283/79 120/277/79 119/275/79
f 122/284/80 124/288/80 123/285/80 120/278/80
f 124/289/81 126/294/81 125/290/81 123/286/81
f 126/293/82 121/281/82 119/276/82 125/291/82
f 126/292/83 124/287/83 122/282/83 121/279/83
f 127/295/84 128/297/84 122/283/84 121/280/84
f 129/299/85 127/296/85 121/281/85 126/293/85
f 128/298/86 130/301/86 124/288/86 122/284/86
f 130/302/87 129/300/87 126/294/87 124/289/87
g Keyboard_Input.011_Keyboard_Input.011
v -0.075347 -0.003041 0.168787
v -0.175347 -0.003041 0.168787
v -0.075347 0.001286 0.168787
v -0.175347 0.001286 0.168787
v -0.175349 -0.003041 0.118491
v -0.175349 0.001286 0.118491
v -0.075349 -0.003041 0.118491
v -0.075349 0.001286 0.118491
v -0.079766 0.005852 0.166566
v -0.170928 0.005852 0.166566
v -0.079768 0.005852 0.120715
v -0.170930 0.005852 0.120715
vn -0.0000 -0.0000 1.0000
vn -1.0000 -0.0000 -0.0000
vn -0.0000 -0.0000 -1.0000
vn 1.0000 -0.0000 -0.0000
vn -0.0000 1.0000 -0.0000
vn -0.0000 0.4374 0.8992
vn 0.7186 0.6954 -0.0000
vn -0.7186 0.6954 -0.0000
vn -0.0000 0.4379 -0.8990
vt 0.831855 0.767185
vt 0.301147 0.813960
vt 0.831855 0.860177
vt 0.292877 0.813960
vt 0.583636 0.674194
vt 0.835811 0.767185
vt 0.305171 0.813960
vt 0.583636 0.581203
vt 0.835811 0.860177
vt 0.288854 0.813960
vt 0.292877 0.767189
vt 0.831855 0.674193
vt 0.536865 0.581201
vt 0.288854 0.767189
vt 0.835790 0.674193
vt 0.831855 0.767185
vt 0.301147 0.767189
vt 0.536865 0.674192
vt 0.305171 0.767189
vt 0.835790 0.767185
vt 0.840363 0.771294
vt 0.309417 0.811894
vt 0.840363 0.856068
vt 0.284608 0.811895
vt 0.309417 0.769257
vt 0.840374 0.763076
vt 0.284608 0.769257
vt 0.840374 0.678302
s 0
usemtl m_keyboard_key
f 133/308/88 134/311/88 132/305/88 131/303/88
f 134/312/89 136/316/89 135/313/89 132/306/89
f 136/317/90 138/322/90 137/318/90 135/314/90
f 138/321/91 133/309/91 131/304/91 137/319/91
f 138/320/92 136/315/92 134/310/92 133/307/92
f 139/323/93 140/325/93 134/311/93 133/308/93
f 141/327/94 139/324/94 133/309/94 138/321/94
f 140/326/95 142/329/95 136/316/95 134/312/95
f 142/330/96 141/328/96 138/322/96 136/317/96
g Keyboard_Input.012_Keyboard_Input.012
v 0.049653 -0.003041 0.168787
v -0.050347 -0.003041 0.168787
v 0.049653 0.001286 0.168787
v -0.050347 0.001286 0.168787
v -0.050349 -0.003041 0.118491
v -0.050349 0.001286 0.118491
v 0.049651 -0.003041 0.118491
v 0.049651 0.001286 0.118491
v 0.045234 0.005852 0.166566
v -0.045928 0.005852 0.166566
v 0.045232 0.005852 0.120715
v -0.045930 0.005852 0.120715
vn -0.0000 -0.0000 1.0000
vn -1.0000 -0.0000 -0.0000
vn -0.0000 -0.0000 -1.0000
vn 1.0000 -0.0000 -0.0000
vn -0.0000 1.0000 -0.0000
vn -0.0000 0.4374 0.8992
vn 0.7186 0.6954 -0.0000
vn -0.7186 0.6954 -0.0000
vn -0.0000 0.4379 -0.8990
vt 0.848893 0.581201
vt 0.350765 0.813960
vt 0.848893 0.674192
vt 0.342495 0.813960
vt 0.723950 0.767189
vt 0.852850 0.581201
vt 0.354789 0.813960
vt 0.723950 0.674197
vt 0.852850 0.674192
vt 0.338472 0.813960
vt 0.342495 0.767189
vt 0.823336 0.674193
vt 0.677179 0.674195
vt 0.338472 0.767189
vt 0.827271 0.674193
vt 0.823336 0.767185
vt 0.350765 0.767189
vt 0.677179 0.767187
vt 0.354789 0.767189
vt 0.827271 0.767185
vt 0.857401 0.585310
vt 0.359035 0.811894
vt 0.857401 0.670084
vt 0.334226 0.811894
vt 0.359035 0.769257
vt 0.831855 0.763076
vt 0.334226 0.769257
vt 0.831855 0.678302
s 0
usemtl m_keyboard_key
f 145/336/97 146/339/97 144/333/97 143/331/97
f 146/340/98 148/344/98 147/341/98 144/334/98
f 148/345/99 150/350/99 149/346/99 147/342/99
f 150/349/100 145/337/100 143/332/100 149/347/100
f 150/348/101 148/343/101 146/338/101 145/335/101
f 151/351/102 152/353/102 146/339/102 145/336/102
f 153/355/103 151/352/103 145/337/103 150/349/103
f 152/354/104 154/357/104 148/344/104 146/340/104
f 154/358/105 153/356/105 150/350/105 148/345/105
g Keyboard_Input.013_Keyboard_Input.013
v 0.174653 -0.003041 0.168787
v 0.074653 -0.003041 0.168787
v 0.174653 0.001286 0.168787
v 0.074653 0.001286 0.168787
v 0.074651 -0.003041 0.118491
v 0.074651 0.001286 0.118491
v 0.174651 -0.003041 0.118491
v 0.174651 0.001286 0.118491
v 0.170234 0.005852 0.166566
v 0.079072 0.005852 0.166566
v 0.170232 0.005852 0.120715
v 0.079070 0.005852 0.120715
vn -0.0000 -0.0000 1.0000
vn -1.0000 -0.0000 -0.0000
vn -0.0000 -0.0000 -1.0000
vn 1.0000 -0.0000 -0.0000
vn -0.0000 1.0000 -0.0000
vn -0.0000 0.4374 0.8992
vn 0.7186 0.6954 -0.0000
vn -0.7186 0.6954 -0.0000
vn -0.0000 0.4379 -0.8990
vt 0.823336 0.767185
vt 0.404821 0.813960
vt 0.823336 0.860177
vt 0.396552 0.813960
vt 0.303009 0.767189
vt 0.827292 0.767185
vt 0.408845 0.813960
vt 0.303009 0.674197
vt 0.827292 0.860177
vt 0.392528 0.813960
vt 0.396552 0.767189
vt 0.831855 0.581201
vt 0.256238 0.674195
vt 0.392528 0.767189
vt 0.835790 0.581201
vt 0.831855 0.674192
vt 0.404821 0.767189
vt 0.256238 0.767187
vt 0.408845 0.767189
vt 0.835790 0.674192
vt 0.831844 0.771294
vt 0.413091 0.811894
vt 0.831844 0.856068
vt 0.388282 0.811895
vt 0.413091 0.769256
vt 0.840374 0.670084
vt 0.388282 0.769257
vt 0.840374 0.585310
s 0
usemtl m_keyboard_key
f 157/364/106 158/367/106 156/361/106 155/359/106
f 158/368/107 160/372/107 159/369/107 156/362/107
f 160/373/108 162/378/108 161/374/108 159/370/108
f 162/377/109 157/365/109 155/360/109 161/375/109
f 162/376/110 160/371/110 158/366/110 157/363/110
f 163/379/111 164/381/111 158/367/111 157/364/111
f 165/383/112 163/380/112 157/365/112 162/377/112
f 164/382/113 166/385/113 160/372/113 158/368/113
f 166/386/114 165/384/114 162/378/114 160/373/114
g Keyboard_Input.014_Keyboard_Input.014
v 0.174653 -0.003041 0.270288
v -0.175347 -0.003041 0.270288
v 0.174653 0.001286 0.270288
v -0.175347 0.001286 0.270288
v -0.175349 -0.003041 0.219991
v -0.175349 0.001286 0.219991
v 0.174651 -0.003041 0.219991
v 0.174651 0.001286 0.219991
v 0.170234 0.005852 0.268066
v -0.170928 0.005852 0.268066
v 0.170232 0.005852 0.222215
v -0.170930 0.005852 0.222215
vn -0.0000 0.4379 -0.8990
vn -0.7186 0.6954 -0.0000
vn 0.7186 0.6954 -0.0000
vn -0.0000 -0.0000 1.0000
vn -1.0000 -0.0000 -0.0000
vn -0.0000 -0.0000 -1.0000
vn 1.0000 -0.0000 -0.0000
vn -0.0000 1.0000 -0.0000
vn -0.0000 0.4376 0.8992
vt 0.779240 0.581201
vt 0.234989 0.813961
vt 0.779240 0.906673
vt 0.251529 0.813961
vt 0.239013 0.813961
vt 0.144553 0.906675
vt 0.783196 0.581201
vt 0.247505 0.813961
vt 0.144553 0.581203
vt 0.783196 0.906673
vt 0.251529 0.767189
vt 0.770721 0.581201
vt 0.247505 0.767189
vt 0.774656 0.581201
vt 0.097781 0.581201
vt 0.770721 0.906673
vt 0.234989 0.767189
vt 0.774656 0.906673
vt 0.239013 0.767189
vt 0.097781 0.906673
vt 0.243259 0.811894
vt 0.787748 0.585310
vt 0.243259 0.811895
vt 0.787748 0.902564
vt 0.779240 0.902564
vt 0.243259 0.769256
vt 0.779240 0.585310
vt 0.243259 0.769257
s 0
usemtl m_keyboard_key
f 178/413/115 177/411/115 174/404/115 172/400/115
f 176/409/116 178/414/116 172/399/116 170/394/116
f 177/412/117 175/407/117 169/391/117 174/405/117
f 169/393/118 170/396/118 168/389/118 167/387/118
f 170/394/119 172/399/119 171/397/119 168/390/119
f 172/400/120 174/404/120 173/402/120 171/398/120
f 174/405/121 169/391/121 167/388/121 173/403/121
f 174/406/122 172/401/122 170/395/122 169/392/122
f 175/408/123 176/410/123 170/396/123 169/393/123
